<?xml version="1.0" encoding="UTF-8" standalone="no"?><!DOCTYPE svg PUBLIC "-//W3C//DTD SVG 1.1//EN" "http://www.w3.org/Graphics/SVG/1.1/DTD/svg11.dtd"><svg width="100%" height="100%" viewBox="0 0 16 16" version="1.1" xmlns="http://www.w3.org/2000/svg" xmlns:xlink="http://www.w3.org/1999/xlink" xml:space="preserve" style="fill-rule:evenodd;clip-rule:evenodd;stroke-linejoin:round;stroke-miterlimit:1.41421;"><path d="M8,0l2.357,4.843c0.031,0.064 0.076,0.12 0.13,0.163c0.054,0.043 0.116,0.072 0.182,0.085l4.939,0.955l-3.482,3.948c-0.047,0.053 -0.082,0.116 -0.102,0.186c-0.021,0.07 -0.027,0.144 -0.018,0.216l0.696,5.433l-4.509,-2.403c-0.06,-0.032 -0.126,-0.049 -0.193,-0.049c-0.067,0 -0.133,0.017 -0.193,0.049l-4.509,2.403l0.696,-5.433c0.009,-0.072 0.003,-0.146 -0.018,-0.216c-0.02,-0.07 -0.055,-0.133 -0.102,-0.186l-3.482,-3.948l4.939,-0.955c0.066,-0.013 0.128,-0.042 0.182,-0.085c0.054,-0.043 0.099,-0.099 0.13,-0.163l2.357,-4.843Z" style="fill:url(#_Linear1);"/><defs><linearGradient id="_Linear1" x1="0" y1="0" x2="1" y2="0" gradientUnits="userSpaceOnUse" gradientTransform="matrix(8,8,-8,8,3.5,3.5)"><stop offset="0%" style="stop-color:#ffd482;stop-opacity:1"/><stop offset="51%" style="stop-color:#ffcf73;stop-opacity:1"/><stop offset="100%" style="stop-color:#ffbf42;stop-opacity:1"/></linearGradient></defs></svg>