<?xml version="1.0" encoding="UTF-8" standalone="no"?><!DOCTYPE svg PUBLIC "-//W3C//DTD SVG 1.1//EN" "http://www.w3.org/Graphics/SVG/1.1/DTD/svg11.dtd"><svg width="100%" height="100%" viewBox="0 0 8 8" version="1.1" xmlns="http://www.w3.org/2000/svg" xmlns:xlink="http://www.w3.org/1999/xlink" xml:space="preserve" style="fill-rule:evenodd;clip-rule:evenodd;stroke-linejoin:round;stroke-miterlimit:1.41421;"><path d="M4,0l1.5,2.5l2.5,1l-2,1.5l1,3l-3,-1.5l-3,1.5l1,-3l-2,-1.5l2.5,-1l1.5,-2.5Z" style="fill:url(#_Radial1);"/><path d="M5.5,2.5l2.5,1l-2,1.5l1,3l-3,-1.5l-3,1.5l1,-3l-2,-1.5l2.5,-1l1.5,-2.5l1.5,2.5ZM2.842,2.902l-1.83,0.732l1.576,1.182l-0.732,2.197l2.144,-1.072l2.144,1.072l-0.732,-2.197l1.576,-1.182l-1.83,-0.732l-1.158,-1.93l-1.158,1.93Z" style="fill:#cc891e;"/><defs><radialGradient id="_Radial1" cx="0" cy="0" r="1" gradientUnits="userSpaceOnUse" gradientTransform="matrix(2.05714,-1.2736,1.42189,2.17084,3.14763,4.7098)"><stop offset="0%" style="stop-color:#fae08b;stop-opacity:1"/><stop offset="100%" style="stop-color:#f7ce51;stop-opacity:1"/></radialGradient></defs></svg>